<?xml version="1.0" encoding="UTF-8"?><svg id="ginko" xmlns="http://www.w3.org/2000/svg" viewBox="0 0 177.09 314.15"><path d="M9.95,11.16c7.53-6.47,16.85-5.42,25.55,2.56,2.15,1.97,3.28,6.47,6.65,5.39,2.59-.84,2.92-4.96,4.01-7.73,1.45-3.65,3.97-6.2,7.66-7.33C62.78,1.3,71.89-.66,81.34,.21c10.93,1,16.06,6.24,17.09,17.16,.28,2.98,.53,5.96,.77,8.95,.19,2.28,1.33,2.81,3.37,1.97,1.69-.7,3.4-1.35,5.14-1.92,7.71-2.55,18.91,1.89,22.88,9.02,1.13,2.02,1.32,4.11,.52,6.25-.52,1.4-1.21,2.74-1.81,4.11-1.08,2.47-2.42,5.25-.54,7.54,1.81,2.21,4.67,1.22,7.02,.39,3.99-1.41,7,.29,9.22,3.18,6.14,8.01,13.26,15.38,16.58,25.29,1.9,5.67,4.49,11.11,6.25,16.82,2.23,7.25,.4,11.46-5.9,15.68-1.62,1.08-3.75,1.94-3.43,4.43,.33,2.59,2.72,2.7,4.54,3.18,5.09,1.35,8.96,4.21,11.69,8.71,3.82,6.31,2.75,10.38-1.39,16.39-4.15,6.02-10.09,7.24-16.2,9.02-34.47,10.06-69.47,16.77-105.52,17.14-7.38,.08-8.3,.68-9.91,7.83-8.52,37.79-12.39,75.81-5.05,114.32,.97,5.1,2.83,9.9,4.29,14.84,.34,1.16,1.48,2.76-.2,3.5-1.2,.53-2.61-.44-3.5-1.46-.75-.86-1.31-1.92-1.76-2.97-4.25-9.98-7.44-20.23-9.02-31.03-3.38-23.23-3.61-46.41,.27-69.58,1.32-7.9,3.22-15.67,6.24-23.09,3.7-9.09,3.44-17.61-1.32-26.5-14.03-26.22-21.08-54.72-27.39-83.59C1.19,61.62-.36,47.63,.07,33.29,.35,24.15,3.95,16.31,9.95,11.16Zm67.02,119.9c8.2-7.14,16.01-13.85,23.71-20.69,14.53-12.91,28.36-26.84,47.88-32.36,.63-.18,1.19-.58,1.78-.89,1.72-.89,2.52-1.89,1.2-3.89-2.65-4.02-4.85-8.3-7.97-12.04-2.07-2.49-4.03-3.09-6.76-1.22-2.44,1.67-5.06,2.58-7.93,.93-5.21-2.98-7.26-10.93-4.18-16.12,1.39-2.34,4.04-4.7,1.48-7.56-2.9-3.23-6.78-7.19-10.92-5.73-6.1,2.14-13.06,3.89-15.78,11.54-4.44,12.51-9.49,24.72-11.84,37.97-2.49,14.03-6.44,27.8-9.69,41.69-.62,2.67-1.49,5.36-.98,8.36ZM90.15,10.86c-3.49-3.07-8.4-3.09-13.18-3.39-6.1-.38-7.07,.32-7.82,6.25-1.98,15.67-3.84,31.36-5.72,47.04-1.48,12.38-2.4,24.81-4.22,37.17-2.72,18.42-4.01,36.97-3.37,55.61,.04,1.25-.24,2.97,1.38,3.42,1.74,.48,2.73-1.03,3.51-2.24,2.49-3.85,3.47-8.28,4.29-12.68,4.46-23.72,11.88-46.64,18.64-69.74,3.05-10.41,7.88-20.1,11.71-30.19,.6-1.59,2.12-3.61,.45-5.12-5.43-4.92-4.51-10.99-3.65-17.17,.42-2.98,.67-6-2.02-8.96Zm-16.32,136.24c2.38,.46,3.52-.41,4.55-1.11,7.05-4.75,15.01-7.05,23.18-8.74,8.47-1.74,16.99-3.21,25.48-4.85,8.17-1.57,16.28-3.31,24.05-6.43,2.37-.95,3.82-1.96,2.3-4.72-1.94-3.53-.28-6.07,2.56-8.08,8.12-5.76,8.95-8.83,4.61-19.71-.68-1.7-1.44-3.36-2.18-5.03-4.32-9.73-4.37-9.82-14.06-4.95-18.37,9.24-33.47,22.79-47.94,37.07-8.13,8.02-15.78,16.5-22.54,26.54Zm-24.69-.39c1.42-6.45,3.45-12.7,3.6-19.33,.28-12.16,1.43-24.23,3.45-36.23,4.46-26.42,6.34-53.16,9.61-79.73,.38-3.13-.9-3.78-3.6-3.52-4.97,.48-9.19,4.23-10.59,9.84-.65,2.61-1,5.38-3.53,6.86-2.4,1.41-2.69,3.47-2.74,5.92-.16,9.31-.25,18.63-.72,27.93-1.3,25.8-.51,51.54,1.94,77.24,.35,3.71,.69,7.48,2.58,11.02Zm-1.84,14.52c1.12-2.66,2.63-4.69-.86-5.56-1.55-.38-1.76-1.35-1.73-2.54,.33-11.38-2.83-22.39-3.42-33.7-1.08-20.63,0-41.22,.44-61.83,.15-6.81,.83-13.62-.15-20.42-.61-4.27-.41-8.94-6.4-9.96-2.7-.46-4-5.77-6.9-3.71-1.83,1.3-1.64,5.49-2.3,8.39-.25,1.13-.35,2.3-.49,3.45-2.76,22.6-1.87,45.02,2.14,67.46,2.11,11.8,4.25,23.53,7.91,34.95,2.63,8.21,6.88,15.61,11.76,23.45Zm17.78,1.57c.17,.45,.33,.9,.5,1.35,8.48-1.35,16.95-2.76,25.44-4.02,25.1-3.75,49.91-9.26,75.14-12.25,1.73-.2,2.53-1.58,3.21-2.87,2.16-4.12,2.48-8.25-.45-12.19-3.18-4.27-7.84-5.66-13.87-3.7-21.78,7.07-44.18,12.13-65.52,20.68-8.71,3.49-16.19,8.87-24.44,13.01Zm-25.41,1.97c1.09-1.93,.43-3.2-.02-4.37-5.01-13.04-8.63-26.53-12.97-39.79-1.39-4.25-3.13-8.41-3.64-12.92-3.21-28.51-3.67-57.05-.38-85.57,.47-4.07-.81-5.74-4.31-6.88-3.97-1.29-5.87,.71-7.31,3.94-2.23,4.99-2.42,10.3-2.63,15.63-1.53,39.81,9.22,77.25,22.25,114.22,1.97,5.58,4.52,11.04,9,15.75Z"/><path d="M115.77,40.01c.04,6.7-3.59,11.98-6.25,17.62-2.59,5.49-6.05,10.61-7.59,17.77,5.77-5.48,7.85-12.37,13.21-16.84-3.93,9.73-12.07,16.81-16.42,26.3-.21-17.36,9.24-30.79,17.05-44.85Z"/><path d="M88.31,90.97c.02-6,1.98-10.61,3.95-15.12,5.4-12.31,11.01-24.52,16.54-36.77,.34-.75,.71-1.51,1.18-2.18,.63-.91,1.65-1.38,2.57-.72,.77,.56,.23,1.48-.16,2.2-1.1,2.05-2.08,4.17-3.33,6.12-6.46,10.02-10.73,21.08-15.36,31.97-.48,1.12-1.67,2.83,1.25,2.02,.52-.14,.63,.61,.38,1.12-1.89,3.78-2.57,8.29-7.03,11.37Z"/><path d="M68.7,66.89c-1.44-6.76-.3-13.33,.67-19.89,1.67-11.33,4.15-22.55,3.94-34.09-.03-1.48,.1-3.47,1.98-3.26,1.71,.2,1.69,2.03,1.43,3.65-2.4,15.09-4.76,30.19-7.08,45.29-.42,2.75-.63,5.53-.94,8.29Z"/><path d="M84.02,12.68c-1.53,7.98-3.07,15.96-4.6,23.95-.41-.08-.81-.16-1.22-.24,2.45-7.8,.73-16.43,4.56-23.96,.42,.08,.84,.17,1.26,.25Z"/><path d="M134.83,98.55c2.56-1.86,4.92-3.89,6-7.04,.31-.9,.82-2,2.08-1.34,.88,.46,.66,1.53,.36,2.23-2.12,4.82-4.13,9.7-6.61,14.33-.79,1.48-2.21,3.18-3.84-.58-1.84-4.23-2.7-3.86,2.01-7.6Z"/><path d="M142.4,104.75c1.38-5.44,4.65-10.11,6.5-15.36,.39-1.11,1.33-1.42,2.42-1.1,1.45,.43,1.09,1.53,.63,2.37-2.71,5-5.49,9.96-8.25,14.94l-1.3-.84Z"/><path d="M123.23,108.09l-12.08,10.53c3.53-4.05,6.34-8.87,12.08-10.53Z"/><path d="M30.41,50.97c-.95-5.54-1.01-10.94,.8-16.2,.42-1.22,.9-2.95,2.44-2.62,1.6,.34,1.48,2.18,.98,3.33-2.2,4.96-3.12,10.23-4.21,15.49Z"/><path d="M140.57,140.78c5.29-.55,10.58-1.1,16.53-1.72-3.48,3.48-8.78,4.23-16.53,1.72Z"/></svg>