<?xml version="1.0" encoding="UTF-8"?><svg id="palmtree" xmlns="http://www.w3.org/2000/svg" viewBox="0 0 259.65 451.29"><path d="M144.53,0c2.98,10.24,6.28,19.65,7.86,29.51,1.59,9.93-.34,19.88-.63,29.9,2.59,.19,3.3-1.81,4.33-3.12,19.24-24.53,44.91-37.31,75.39-41.15,7.42-.94,14.94-1.05,22.38-1.81,4.26-.44,5.79,1.6,5.79,5.36,0,1.97-.12,4.02-.65,5.91-5.18,18.45-15.16,33.5-31.38,44.14-10.97,7.2-22.2,13.93-34.39,18.79,.3,1.97,1.77,1.76,2.73,1.93,19.75,3.55,34.43,15.8,48.91,28.4,2.49,2.17,1.94,3.8-.86,5.19-5.06,2.5-10.55,3.09-16,3.4-16.62,.93-32.47-1.66-46.72-10.99-1.47-.96-3-2.13-5.47-1.66,.7,4.07,1.22,8.15,2.11,12.15,1.8,8.02,2.02,16.16,2.13,24.32,.08,5.79-1.13,6.91-7.24,6.52,1.64,7,3.4,13.86,4.85,20.78,4.46,21.3,3.38,42.66,.84,64.09-3.74,31.55-6.88,63.18-10.79,94.7-2.32,18.64-5.64,37.16-8.52,55.73-.64,4.1-1.61,8.2,.37,12.25,.33,.67,.4,1.71,.12,2.39-5.06,12.52-4.18,25.68-4.16,38.73,0,2.8-4.22,6.51-7.59,5.68-3.99-.99-7.94-.54-11.9-.76-12.71-.7-23.32-6.13-32.65-14.43-3.44-3.06-3.93-6.27-2.51-11.03,4.9-16.39,8.1-33.24,11.47-50.01,4.98-24.77,10.52-49.48,14.24-74.45,3.23-21.69,5.12-43.6,8.27-65.32,1.6-11.01,4.33-21.96,4.74-33.01,.52-14.08,1.12-28.29-1.16-42.35-.39-2.42-.68-4.86-1.07-7.7-2.19,.77-2.55,2.49-3.15,3.87-7,16.1-16.51,30.35-30.23,41.56-2.24,1.83-3.8,4.16-4.72,6.92-.52,1.58-1.49,2.61-3.3,2.36-1.7-.23-1.79-1.71-2.24-2.94-1.07-2.92-.37-5.95-.63-8.91-1.76-20.67,1.69-40.81,6.18-60.84,.33-1.46,.58-2.94,.84-4.41,.14-.79,.23-1.6,.45-3.14-4.88,1.43-8.07,4.52-11.47,7.15-12.38,9.56-26.1,16.57-40.85,21.56-12.74,4.31-25.73,5.03-38.84,1.62-1.76-.46-3.51-1.06-5.14-1.86-5.35-2.6-5.31-3.2-1.72-7.98,3.89-5.18,7.6-10.52,11.11-15.97,6.33-9.84,14.57-18.17,21.4-27.6,.76-1.05,1.82-1.97,2.92-2.66,7.78-4.85,15.05-10.43,22.27-16.05,14.37-11.16,30.29-14.63,47.96-10.43,4.37,1.04,8.86,1.63,13.15,2.89,3.94,1.16,4.21-.39,3.59-3.59-2.02-10.47-4.08-20.99-3.1-31.7,1.56-16.89,9.96-30.2,22.71-41.98Zm-22.66,84.59c-1.8-2.43-3.94-2.98-5.88-3.57-7.87-2.42-16.06-4.1-24.13-2.56-22.96,4.38-42.67,14.88-57.09,33.71-7.47,9.76-14.15,20.13-21.03,30.33-1.99,2.95-6.54,7.08-5.05,8.89,2.48,3.01,7.79,2.85,12.16,2.62,1-.05,2.01-.03,2.99-.23,6.21-1.27,12.5-1.83,18.82-2.25,4.83-.32,9.61-1.12,14.06-3.16,12.75-5.84,25.12-12.42,35.51-21.97,10.92-10.04,22.61-19.15,33.64-29.03,2.07-1.85,6.12-3.65,5.41-5.91-1.03-3.3-5.39-3.35-8.7-3.53-18.98-1.04-37.22,1.2-53.33,12.51-.31,.22-.88,.07-1.33,.09,15.12-14.3,34.6-14.08,53.97-15.92Zm47.42,4.97c16.05-2.62,31.69-8.38,46.12-17.38,3.81-2.38,7.35-5.13,10.2-8.71,7.15-8.98,14.4-17.88,21.58-26.83,3.37-4.2,5.84-8.88,7.17-14.12,.88-3.47-.28-5.1-4.01-4.63-14.17,1.75-28.36,3.04-42.24,6.99-29.01,8.26-45.82,28.67-56.79,55.25-.84,2.04-2.34,4.48,1.19,5.7,5.2,1.8,10.5,3.15,16.78,3.73Zm-71.98,88.69c.15,3.27,.17,7.44,.58,11.57,.55,5.65,1.91,6.28,6.25,2.8,10.11-8.1,17.18-18.6,21.84-30.48,7.56-19.27,10.02-39.52,9.98-60.13,0-3.37-1.27-3.36-3.42-1.55-6.48,5.46-12.99,10.9-19.38,16.46-2.71,2.36-4.25,5.59-5.06,9.02-2.33,9.87-5.31,19.55-8.28,29.23-2.21,7.23-2.77,14.67-2.52,23.08Zm60.53,191.52q.81-9.27-6.46-9.25c-8.4,0-16.61-.88-23.98-5.44-2.8-1.73-4.22-1.34-4.9,2.35-1.94,10.45-3.92,20.93-6.66,31.19-1.51,5.64,.48,8.27,5.15,10.43,10.02,4.65,20.73,4.16,31.33,4.55,2.48,.09,2.29-1.98,2.45-3.57,1.12-10.75,2.19-21.5,3.08-30.27Zm-4.35,41.15c.64-2.41-2.15-1.42-3.87-1.39-12.01,.24-24.05,.76-34.24-7.44-2.15-1.73-2.75-.08-3.22,1.73-1.98,7.55-3.98,15.09-6.04,22.62-.58,2.11-.19,3.63,1.34,5.37,6.05,6.91,13.92,9.31,22.67,9.73,4.97,.24,9.99-.44,14.92,.63,1.89,.41,2.68-.05,3.03-2.02,1.65-9.32,3.44-18.61,5.42-29.22ZM142.18,9.64c-2.35,3.46-4.27,6.73-6.62,9.66-14.59,18.17-12.12,37.2-2.92,56.54,1.17,2.46,2.31,6.04,5.32,6.01,3.52-.03,3.81-4.1,4.99-6.67,7.77-16.92,7.39-34.44,3.49-52.16-.98-4.44-1.43-9.07-4.26-13.39Zm30.66,214.28c0-3.66,.06-7.31-.02-10.97-.06-2.91-1.49-4.01-4.2-2.61-7.03,3.65-14.36,3.66-21.83,1.87-2.65-.63-3.93-.11-4.17,2.96-.76,9.77-1.72,19.53-2.76,29.27-.3,2.76,.54,4.14,3.19,5.2,8.24,3.31,16.67,2.23,25.11,1.58,2.26-.17,2.44-1.82,2.74-3.5,1.41-7.88,1.87-15.83,1.95-23.81Zm-14.52,65.85c1.58,0,3.75-.14,5.9,.03,3.23,.27,4.76-.66,4.91-4.29,.32-7.47,.97-14.94,1.87-22.37,.49-4.01-.94-4.82-4.6-4.52-8.32,.68-16.65,.7-24.58-2.59-2.86-1.19-3.78,.14-4.33,2.78-1.68,8-2.47,16.1-3.24,24.21-.23,2.48,.71,3.53,2.96,4.31,6.68,2.32,13.37,4.11,21.1,2.44Zm62.72-170.71c3.82,0,7.65,.04,11.47-.03,.91-.01,2.18,.4,2.59-.83,.36-1.07-.6-1.82-1.25-2.53-4.04-4.47-8.85-8.12-13.73-11.52-11.29-7.87-24.14-11.58-37.79-12.2-4.25-.19-8.57,.93-12.84,1.6-1.54,.24-3.84-.67-4.46,1.05-.64,1.77,1.15,3.36,2.34,4.65,9.54,10.36,20.91,17.26,35.26,18.63,6.13,.58,12.24,1.26,18.4,1.17Zm-65.39,225.18c1.09-6.08,2.06-10.93,2.79-15.82,.42-2.81-.18-5.25-3.91-4.47-8.29,1.72-16.18-.15-23.99-2.6-2.06-.65-3.18-.46-3.51,1.81-.99,6.91-1.99,13.81-2.98,20.72-.26,1.83,.31,3.21,2.04,4.12,9.28,4.85,18.93,8.04,29.62,7.04,2.5-.23,3.79-1.16,4.24-3.83,1.4-8.36,3.11-16.66,4.6-25,.2-1.12,1.21-2.89-.69-3.33-1.84-.43-2.64,1.21-2.88,2.74-.55,3.44-.87,6.92-1.39,10.37-.41,2.69-.34,5.63-3.94,8.27Zm-6.08-25.54c1,0,1.99,.02,2.99,0q7.24-.16,7.23-7.22c0-1.16-.05-2.32-.04-3.49,.01-1.37,.08-2.93,1.92-2.85,1.96,.09,1.54,1.88,1.56,3.08,.02,1.82-.3,3.64-.33,5.46-.03,1.41-.5,3.46,1.53,3.6,1.86,.13,2.14-1.83,2.26-3.31,.44-5.46,.65-10.94,1.21-16.38,.36-3.46-1.15-3.9-4.04-3.38-9.14,1.64-18.15,1.69-26.73-2.61-3-1.51-4.18-.07-4.64,2.82-.92,5.73-1.84,11.46-2.99,17.14-.62,3.05,.79,4.16,3.41,4.83,5.48,1.41,10.98,2.63,16.69,2.31Zm26.68-173c-1.75-12.17-3.12-24.49-7.58-36.03-3.92-10.11-12.77-14.39-22.66-16.91-2.45-.62-3.13,.47-2.32,2.61,5.52,14.58,9.28,29.94,18.86,42.72,2.93,3.9,6.38,7.24,10.81,9.44,1.93,.96,3.29,1,2.9-1.82Zm-32.74-26.99c-2.2,5.96-2.72,10.89-1.43,15.01,2.38,7.63,1.78,15.38,2.49,23.05,.96,10.44,.63,10.46,11.12,10.05,4.49-.18,9.35-1.13,11.1-5.26,1.73-4.1,.12-8.82-2.69-12.62-.88-1.19-2.03-2.18-3-3.31-1.93-2.27-3.77-4.61-5.72-6.85-4.86-5.6-9.17-11.55-11.88-20.06Zm8.23,62.63c.21,4.04-.54,8.49-.9,12.96-.96,11.85,2.72,14.4,14.17,9.94,1.39-.54,2.67-1.34,4.04-1.94,2.44-1.09,3.44-2.86,3.07-5.56-.93-6.92-1.69-13.86-2.63-20.77-1.09-8.04-1.14-8.03-9.11-5.68-.63,.19-1.33,.45-1.95,.37-6.21-.84-7.81,2.23-6.71,7.73,.16,.8,.02,1.66,.02,2.96Zm-3.13-6.57c-.44-1.22,2.09-3.54-1.07-3.77-3.07-.23-2.14,2.47-2.22,3.97-.48,8.25-.67,16.53-1.16,24.78-.15,2.45,.01,4.56,2.85,4.71,2.99,.16,1.92-2.54,2.07-4.01,.89-8.56,1.48-17.14-.47-25.69Z"/><path d="M84.42,119.32c-.45,.74-.84,1.71-1.51,2.4-4.64,4.78-10.04,8.61-15.61,12.21-.92,.6-2.39,1.36-3.15,.23-.98-1.46,.46-2.34,1.58-3.06,5.59-3.62,11.01-7.43,14.85-13.04,.61-.9,1.39-1.46,2.5-.83,.74,.42,1.3,1.01,1.34,2.08Z"/><path d="M112.83,95.73c-7.58,1.88-15.16,3.77-22.74,5.65,6.94-4.48,14.08-8.13,22.42-6.92l.31,1.27Z"/><path d="M30.6,145.92c6.73-1.92,13.71-3.12,19.45-8.62-.75,6.47-8.42,9.72-19.45,8.62Z"/><path d="M95.52,104.44c1.75-2.07,3.8-2.27,5.6-2.81,1.71-.51,4.3-2.71,5.04-.08,.54,1.93-2.8,2.12-4.61,2.63-1.73,.49-3.52,.94-6.03,.26Z"/><path d="M184.39,62.66c-2.23,1.98-4.28,1.44-6.05-.53-1.87-2.08-2.01-4.44-.62-6.89,2.33-4.12,18.16-10.48,22.85-9.2,1.02,.28,1.92,.69,2,1.86,.09,1.26-.86,1.67-1.89,1.85-1.96,.34-3.95,.54-5.89,.95-2.59,.55-5.23,1-7.7,1.91-6.9,2.52-7.56,5.14-2.7,10.05Z"/><path d="M224.3,31.81c4.33-1.9,8.64-3.85,13-5.67,.83-.35,2.11-.62,2.54,.64,.38,1.13-.56,1.84-1.44,2.32-4.28,2.36-8.84,3.68-14.1,2.71Z"/><path d="M171,76.84c3.38-1.82,6.76-3.66,10.15-5.46,.74-.39,1.65-.6,2.24,.18,.76,1.01,.08,1.92-.65,2.55-3.26,2.85-7.32,3.21-11.27,3.91-.16-.39-.32-.78-.48-1.18Z"/><path d="M130.27,121.57c-4.47,.6-8.6-.45-13.55-1.34,6.41-3.78,11.26-3.15,13.55,1.34Z"/><path d="M113.44,128.34c4.67-2.68,8.75-1.73,12.75-1.39,.87,.07,1.61,.49,1.5,1.52-.08,.74-.69,1.13-1.38,1.14-4.01,.06-8.11,1.01-12.87-1.27Z"/><path d="M124.68,134.51c-3.96,3.03-7.81,2.67-11.52,2.79-.98,.03-2.06-.4-1.92-1.75,.1-.97,.94-1.38,1.79-1.41,3.57-.12,7.16-1.48,11.65,.36Z"/><path d="M109.08,170.06c-.81,5.57-4.05,7.36-7.43,9.03,.57-3.99,3.18-6.33,7.43-9.03Z"/><path d="M111.98,141.19c2.84-2.06,5.46-1.91,7.97-2.09,.89-.06,1.64,.39,1.7,1.37,.06,1.05-.8,1.36-1.62,1.47-2.44,.32-4.9,.66-8.05-.75Z"/><path d="M151.43,373.41c-.08,1.58-1.07,3.34,.59,4.63,3.87,3,.48,4.59-1.39,5.91-2.31,1.63-4.58,1.36-6.04-1.66-1.91-3.94-.52-10.84,2.98-13.65,.88-.71,1.95-1.73,3.03-.82,1.82,1.52,.89,3.67,.82,5.59Z"/><path d="M143.68,425.59c.29-3.35,.41-5.54,.71-7.7,.15-1.08,.37-2.49,2.01-2.12,1.28,.29,1.1,1.51,.95,2.43-.4,2.34-.81,4.72-3.67,7.39Z"/><path d="M165.69,242.28c-1.48-1.86-.89-3.36-.61-4.67,1.05-4.92,1.36-9.75-.21-14.65-.58-1.81-1.05-4.49,1.68-4.78,2.1-.22,1.93,2.37,2.01,3.84,.37,6.78,1.05,13.65-2.87,20.25Z"/><path d="M140.96,269.74c.22-.63,.55-2.11,1.25-3.39,.68-1.26,1.74-3.28,3.09-2.73,2.06,.83-.13,2.42-.19,3.7-.13,2.95-3.59,7.16,2.85,7.7,.79,.07,1.21,.7,.89,1.38-.25,.53-.82,1.04-1.37,1.26-3.35,1.3-6.6-2.25-6.52-7.92Z"/><path d="M190.62,99.86c8.09,.21,15.62,2.36,22.62,6.27,1.45,.81,2.93,2.55,1.8,4.09-1.46,2-2.87,.14-4-1.02-3.8-3.9-8.86-5.03-13.83-6.36-2.33-.63-4.85-.77-6.59-2.98Z"/><path d="M203.36,109.99c-4.66-.53-7.95-.99-11.62-2.69,4.35-1.58,7.67-1.19,11.62,2.69Z"/><path d="M145.03,347.18c.41-4.01,1.16-7.85,1.03-11.81-.03-.89,.45-1.62,1.48-1.57,1.01,.05,1.55,.87,1.41,1.68-.69,4.09-.69,8.41-3.92,11.7Z"/><path d="M139.99,343.21c0-3.3-.04-6.6,.03-9.9,.02-.8,.31-1.72,1.43-1.6,.83,.08,.99,.76,.92,1.47-.34,3.37-.7,6.73-1.06,10.1-.44-.02-.89-.05-1.33-.07Z"/><path d="M157.89,115.51c-2.59-4.74-4.3-9.89-7.82-14.05-.69-.81-.53-1.98,.73-2.38,1.16-.37,2.33-.34,2.98,.99,2.37,4.84,4.46,9.77,4.11,15.45Z"/><path d="M163.68,131.55c-1.2-2.76-2.42-5.5-3.57-8.28-.31-.75-.41-1.74,.47-2.15,.87-.4,1.56,.27,1.97,1.01,1.59,2.85,2.46,5.84,1.13,9.42Z"/><path d="M155.25,175.75c2.65,3.71,2.97,10.43,1.14,16.22-1.37-3.46-1.83-9.38-1.14-16.22Z"/></svg>