<?xml version="1.0" encoding="UTF-8"?><svg id="leaves" xmlns="http://www.w3.org/2000/svg" viewBox="0 0 241.22 289.34"><path d="M94.49,207.38c.61-6.16-.93-11.23-2.59-16.19-6.36-18.94-15.22-36.89-22.18-55.59-1.46-3.91-4.5-6.07-8.26-7.41-13.52-4.82-26.21-11.41-38.9-18.01-2.08-1.08-3.9-2.46-5.78-3.85C4.3,97.13,2.77,83.07,.79,69.49c-1.42-9.71-.9-19.61,1.45-29.27C7.54,18.38,21.8,5.53,43.21,.63c15.57-3.56,33.03,8.37,36.94,24.06,4.35,17.48,4.72,34.96,2.76,52.87-1.34,12.18-4.52,23.8-7.12,35.62-1.39,6.34-.88,12.46,1.73,18.54,4.46,10.39,8.56,20.93,12.79,31.42,2.87,7.11,5.33,14.33,6.61,21.93,.58,3.43,1.42,6.82,3.41,9.9,1.96-.73,1.89-2.62,2.43-4,5.25-13.46,10.74-26.84,12.29-41.42,.27-2.52,.35-4.91-.33-7.39-7.4-26.91-8.54-54.55-8.29-82.16,.2-22.11,11.3-38.48,30.93-48.87,7.21-3.81,14.44-7.5,22.59-9.06,8.49-1.62,16.16,.13,23.35,4.68,3.37,2.14,6.67,4.47,10.26,6.15,8.83,4.14,14.26,11.06,17.8,19.94,9,22.52,9.32,44.43-4.37,65.36-6.88,10.51-17.24,17.02-27.93,22.83-14.76,8.02-29.77,15.59-44.76,23.17-4.62,2.34-7.55,5.67-9.07,10.61-4.45,14.49-10.22,28.48-16.29,42.35-1.31,3-2.6,6.05-2.7,9.82,3.1-.52,5.01-2.38,6.98-4,8.24-6.77,16.62-13.32,26.2-18.12,2.02-1.01,2.78-2.77,3.46-4.65,1.85-5.16,3.56-10.38,5.52-15.51,4.86-12.73,13.06-22.7,24.97-29.45,7.09-4.02,14.36-7.56,22.08-10.37,22.07-8.02,49.8,14.27,45.25,39.11-1.21,6.59-2.65,13.03-6.17,18.84-3.69,6.09-9.04,9.73-15.66,12.42-16.49,6.72-32.46,3.39-48.21-1.96-6.18-2.1-11.56-2.75-18.16-1.39-17.4,3.6-31.3,12.5-42.77,25.46-7.43,8.4-8.5,19.31-9.62,29.92-1.14,10.82,.21,21.61,1.19,32.38,.17,1.82,.28,3.67,.08,5.47-.19,1.69,0,4.53-2.33,4.18-2.06-.32-4.73-1.22-4.97-4.58-.84-11.61-2.16-23.18-1.23-34.88,.75-9.42,.95-18.89,1.26-28.34,.19-5.81-2.33-10.08-6.36-11.34-4.33-1.35-7.87,.54-11.4,5.9-1.86,2.82-2.93,5.96-4.07,9.08-1.91,5.2-4.42,10.05-8.13,14.2-10.11,11.29-31.01,11.17-40.63-.64-4.7-5.77-4.83-13.26-1.81-19.47,5.35-11.03,14.42-18.68,26.4-22.08,8.93-2.53,17.2-.38,24.33,5.51,3.2,2.65,6.08,3.33,9.9,1.05,4.73-2.83,9.1-2.06,12.14,3.65Zm-51.2,13.79l-.1-.09c-.5,1.76-1.94,4.3,1.99,2.84,7.79-2.89,15.56-5.88,22.62-10.37,1.32-.84,3.27-1.64,2.83-3.65-.42-1.89-2.1-2.99-3.86-3.6-1.24-.43-2.6-.55-3.92-.65-7.67-.55-14.88,.95-21.57,4.82-2.66,1.54-5.36,3-8.04,4.5,3.11-3.05,6.57-5.53,10.33-7.42,3.75-1.89,7.79-3.2,12.7-5.17-12.59-1.34-29.43,10.94-31.44,21.68-.47,2.51,.85,2.37,2.39,2.49,6.11,.46,12.27,1.07,16.08-5.36ZM126.97,28.72c-2.7,3.58-5.41,7.14-8.1,10.73-3.83,5.12-7.05,10.59-7.82,17.04-2.07,17.51-.71,34.84,2.83,52.08,.65,3.15,2.33,1.93,3.99,1.55-.52,3.42-2.16,6.18-1.58,9.25,.25,1.36-.01,3.46,1.77,3.66,1.99,.22,1.95-1.83,2.24-3.25,.43-2.06,.84-4.12,1.26-6.18-.32,9.89-2.5,19.69-1.37,30.53,3.27-4.03,4.67-7.78,6.17-11.47,8.48-20.79,13.84-42.7,22.75-63.32,2.89-6.68,3.69-13.96,6.52-20.61,5.27-12.38,10.02-24.92,13.01-38.08,.65-2.85-.78-4.21-3.14-3.02-3.08,1.56-6.45,2.95-9.17,5.84,1.77,.86,3.01-1.46,4.65,.25-3.28,1.29-5.48,3.87-8.59,6.21,.49-2.38,2.66-3.06,2.07-5.53-3.71,2.34-6.69,5.12-9.8,7.79-4.76,4.09-8.36,9.38-13.61,12.94l.1,.09c.29-2.58,2.49-3.81,4.03-5.41,7.85-8.21,16.1-15.98,27.02-22.84-5.4-.23-8.83,1.16-12.19,2.78-8.37,4.03-14.81,10.47-21.16,17.02,1.13-3.88,5.18-5.66,7.44-10.27-10.71,5.38-16.79,13.25-21.05,22.79,4.57-2.86,7-7.94,11.73-10.57Zm46.17-1.99c-6.59,6.37-7.2,7.28-7.48,11.46,7.02-6.85,13.89-13.55,20.75-20.25,.34,.36,.67,.71,1.01,1.07-1.56,2.75-4.21,4.49-6.48,6.6-6.57,6.11-14.55,11.3-18.32,19.55-6.69,14.64-13.15,29.5-17.12,45.16-2.29,9.03-4.32,18.09-7.42,26.9-.95,2.7-2.37,5.42-1.71,9.25,3.64-3.23,6.85-6.07,10.06-8.92l.47,.52c-1.37,1.86-2.75,3.73-4.94,6.7,6.7-3.89,10.92-8.9,17.32-10.55-6.38,5.39-12.75,10.78-19.13,16.17,21.44-3.08,40.16-11.57,55.59-26.24,5.84-5.55,8.86-13.24,10.45-21.36-9.22,7-15.66,17.16-26.86,21.53,4.98-6.44,10.35-12.52,15.4-18.86,6.69-8.41,12.6-17.26,12.67-28.63,.01-2.5,.29-5.25-1.82-7-1.99-1.65-1.81-3-.81-5.12,1.98-4.16,.57-9.75-2.91-12.67,.91,13.3-3.32,24.47-12.91,33.45,.85-2.07,2.11-4.01,3.66-5.67,9.1-9.78,6.48-21.97,7.01-33.51-4.28-3.98-7.32-9.48-13.56-11.04-1.14-2.17-3.18-2.93-5.29-2.45-3.88,.89-10.8,10.4-11.29,15.2,1.27-.44,2.47-.86,3.67-1.28ZM62.52,84.1c2.81,7.11,4.96,14.38,6.39,21.86,.29,1.51,.09,3.06-.9,4.28-1.28,1.59-2.26,3.51,.01,4.51,2.72,1.18,2.65-1.85,3.01-3.22,5.68-21.61,10.47-43.26,8.26-65.96-1.75-18-8.4-32.04-26.39-38.66-6.73-2.47-13.29-2.63-19.66,1.26-2.48,1.51-3.2,3.06-2.24,6.1,5.23,16.58,10.89,33.01,14.6,50.06,2.66,12.22,7.95,23.61,13.1,34.97,.47,1.04,.61,2.47,2.62,2.83-1.09-3.9-2.09-7.49-3.1-11.08l.7-.21c1.92,5.13,3.83,10.26,5.75,15.4,1.23-7.76-1.13-14.86-2.16-22.15ZM7.04,67.81c.48,15.45,8.6,31.09,25.05,41.91,6.35,4.18,13.5,7.16,20.68,9.81,3.61,1.33,8.55,4.95,10.82,2.35,2.05-2.36-1.53-7.39-3.72-10.59-10.31-15.13-15.34-32.27-19.85-49.71-3.66-14.14-6.56-28.5-11.65-42.24-.72-1.94-1.04-4.84-3.42-5.04-2.46-.2-3.72,2.42-5.08,4.28-.39,.53-.7,1.13-1.02,1.71-7.44,13.48-11.59,27.85-11.81,47.53Zm155.53,115.74c6.26,3.16,12.32,4.98,18.02,7.59,12.24,5.6,24.21,4.2,36.35-.06,10.88-3.82,16.92-11.37,17.92-22.8,.39-4.46,.11-8.97,.34-13.45,.16-3.04-1.33-3.07-3.68-2.71-7.88,1.21-15.79,2.2-23.67,3.39-2.27,.34-4.61,.27-6.76,1.46-12.77,7.12-25.59,14.15-38.38,21.23-.55,.3-1.18,.67-.95,1.96,1.52-.15,3.14-.12,4.66-.49,7.43-1.77,14.81-3.74,22.26-5.43,2.2-.5,5.38-3.62,6.42-.77,.86,2.35-3.48,3.13-5.76,4.26-3.29,1.63-7.45,1.54-10.7,5.63,4.16-.73,7.37-1.31,10.59-1.84,.82-.13,1.74-.12,2.19,.74,.15,.29-.03,1.08-.29,1.22-2.77,1.5-5.21,4.62-8.84,2.73-2.29-1.19-4.45-.99-6.76-.68-2.14,.29-4.72,.85-5.95-1.23-1.19-2.03,2.85-1.82,2.55-4.18-3.24,.17-6.14,1.09-9.56,3.42Zm-13.52-4.42c23.84-16.47,51.23-25.77,76.69-39.1-21.82-.13-39.96,10.82-58.92,19.37,1.63-1.51,3.3-2.92,5.2-3.87,16.15-8.07,32.39-15.95,50.08-20.41-16.41-4.73-29.46,5.26-43.67,10.34,10.11-7.27,22.31-10.2,34.19-15.73-23.72-7.49-55.86,17.82-63.57,49.39Zm-81.35,41.15c-3.14,1.61-5.87,3.02-8.61,4.41-8.7,4.43-17.7,7.55-27.69,6.84-2.02-.14-5.11-1.71-5.85,.3-.98,2.64,1.72,4.77,3.89,6.31,1.6,1.14,3.4,2.21,5.28,2.72,17.3,4.7,29.7-.16,32.98-20.58ZM205.8,73.3c-5.15,6.35-9.46,13.3-14.27,19.9,6.37-5.48,13.14-10.68,14.27-19.9Zm8,78.97c7.17,.49,12.26-1.64,17.33-3.96,1.86-.85,1.65-2.17,1.29-3.7-.25-1.09-.92-2.07-1.92-1.91-2.4,.38-.42,2.01-.65,3.04-.42,1.85-2.11,1.85-3.43,2.32-3.7,1.3-7.74,1.55-12.61,4.22Z"/><path d="M173.36,92.74c-5.74,5.36-11.49,10.72-17.23,16.08l-.7-.75,17.16-16.27,.78,.93Z"/><path d="M173.04,26.77c3.54-4.79,6.88-9.81,13.09-11.6-3.02,5.39-8.62,7.85-13.09,11.6Z"/><path d="M131.06,35.13c-2.57,6.79-8.81,11.51-10.63,18.72,.43-8.01,4.84-13.74,10.73-18.63l-.1-.09Z"/><path d="M70.9,37.23c-2.95-15.31-14.04-22.77-28.2-28.63,13.18,.53,30.74,18.69,28.2,28.63Z"/><path d="M40.37,17.24c7.29,.54,13.8,7.46,14.11,14.43-3.62-5.39-7.24-10.78-14.11-14.43Z"/><path d="M70.18,84.8c-2.89-6.01-3.84-12.88-7.57-18.53-.43-.65,.03-1.33,.64-1.63,1-.49,1.57,.3,1.89,1.02,1.02,2.25,2.08,4.49,2.85,6.83,1.27,3.87,2.32,7.81,3.47,11.72-.43,.2-.85,.4-1.28,.59Z"/><path d="M27.45,39.41c-3.53-4.95-5.08-10.37-5.08-16.23,0-1.2,.34-2.45,1.81-2.47,1.18,0,1.63,1.18,1.66,2.11,.19,5.56,1.29,11.02,1.61,16.59Z"/><path d="M36.8,78.59c-2.04-3.86-4.3-7.66-4.54-12.2,3.16,3.42,3.54,7.93,4.54,12.2Z"/><path d="M214.79,186.1c-5.69,2.49-9.87,1.46-14.02-.2,4.28-1.23,8.48-.46,14.02,.2Z"/><path d="M230.52,156.22c-4.57,2.97-9.33,2.92-14.21,1.92,4.74-.64,9.47-1.28,14.21-1.92Z"/><path d="M217.09,163.52h10.48c-3.89,2.3-7.18,1.25-10.43,1.4l-.05-1.4Z"/><path d="M43.29,221.18c3.69-7.55,14.8-12.67,20.3-8.57-8.29-.46-14.46,3.75-20.4,8.48l.1,.1Z"/></svg>