<?xml version="1.0" encoding="UTF-8"?><svg id="spikey" xmlns="http://www.w3.org/2000/svg" viewBox="0 0 240.78 469.44"><path d="M173.27,53.93c-1.25,4.61-4.43,8.31-5.96,12.78-.61,1.8-1.19,3.61-1.77,5.37,.46,.28,.8,.6,.93,.53,9.07-4.67,18.22-9.21,27.14-14.14,3.09-1.71,5.21-4.79,7.26-7.73,4.5-6.43,9.21-12.7,14.64-18.46-4.66,7.55-11.15,13.99-14.61,23.01,3.03-.14,5.52-1.06,7.73,.84,1.25,1.07,2.01-.46,2.83-1.26,1.23-1.19,1.73-3.16,3.75-3.49l-.09-.08c0,1.96-3.47,2.87-2.01,4.84,1.16,1.57,3.61,.66,5.5,.67,4.97,.02,9.94,0,14.92,.35-6.38,1.27-12.86,1.02-19.31,1.34-1.46,.07-3.02,.11-4.34,.64-1.21,.48-2.25,1.78-1.89,3.17,.33,1.25,1.77,.65,2.72,.67,4.99,.11,10.02-.12,14.81,1.98-4.98-.25-9.95-.54-14.93-.41-4.85,.13-8.46,2.19-10.93,6.43-1.25,2.15-1.32,3.24,1.64,3.07,2.2-.13,4.42-.03,6.72,.36-11.24,1.75-22.47,3.52-33.71,5.23-7.52,1.14-12.38,6.22-17.02,11.93,5.94-2.03,11.84-4.19,17.84-6.05,6.05-1.89,12.12-3.87,18.73-3.31-8.7,1.95-17.16,4.51-25.39,7.92-8,3.32-17.12,4.61-22.87,14.01,10.25-2,18.65-6.48,28.14-6.51-8.5,2.9-16.99,5.83-25.51,8.68-5.44,1.82-9,5.37-10.89,11.64,5.78-1.85,11.01-3.51,17.23-5.5-9.41,6.55-22.62,6.75-25.07,21.31,3.71-1.68,6.88-3.05,9.99-4.54,7.72-3.69,15.7-6.23,24.4-5.61,4.67,.33,8.43-2.37,12.94-2.92-7.25,3.18-14.51,6.35-21.76,9.53,1.01-2.53,4.37-2.05,5.75-4.3-6.75-1.72-28.7,7.25-32.75,13.32,4.32,1.32,8.31,1.38,12.09-1.63,1.69-1.35,3.85-2.12,5.79-3.15-1.56,2.68-5.17,3.54-6.38,7.89,17.72-3.84,35-8.04,52.81-5.04-15.69-.12-31.34-.06-46.82,6.3,3.36,3.28,6.37,5.57,10.81,4.77,3.91-.7,7.83-1.35,11.8-1.74-2.96,1.11-6.12,1.49-8.93,2.94-.89,.46-2.15,.81-2.14,2,0,1.32,1.2,1.99,2.25,2.52,1.84,.93,3.76,.45,5.66,.13,11.72-1.98,23.53-2.83,35.4-3.09,2.66-.06,5.29,.2,7.87,1.62-1.3,0-2.6,.02-3.91,0-10.53-.15-21.05-.06-31.49,1.64-1.31,.21-2.66,.39-3.9,.83-2.08,.74-6,.97-5.31,3.24,.79,2.61,3.18,5.5,7.4,5,8.24-.98,16.52-1.58,24.8-2.19,6.1-.45,12.22-.65,18.35-.55-12.06,1.01-24.15,1.52-36.1,3.47-2.12,.34-5.76,.29-5.46,2.4,.36,2.54,3.88,1.62,6.09,1.41,13.87-1.33,27.72-2.96,41.68-2.98,2.65,0,5.3,0,7.96,.59-12.17,1.02-24.35,1.97-36.52,3.09-4.57,.42-9.1,1.22-13.65,1.85-2.18,.3-2.64,1.25-1.66,3.34,2.63,5.57,4.52,6.92,10.79,6.36,14.05-1.25,28.14-1.27,42.21-1.76,1.98-.07,3.96,0,5.96,.47-1.33,1.37-2.96,1.1-4.46,1.14-13.48,.42-26.97,.68-40.42,1.96-1.18,.11-2.37,.17-3.53,.35-1.78,.28-3.07,1.17-3.12,3.15-.05,2.22,1.8,2.11,3.16,2.27,9.5,1.06,18.94-.5,28.4-.86,5.27-.2,10.54-.7,15.75,.23v1.09c-3.58,0-7.17,.1-10.74-.02-9.97-.32-19.84,.66-29.69,1.95-1.27,.17-3.74-.59-3.39,2.11,.28,2.17,1.69,3.05,4.05,3.05,13.94,.01,27.88,.07,41.8,.86,2.45,.14,4.92,.02,7.41,.63-1.75,1.54-3.78,1.29-5.68,1.19-11.25-.56-22.48-1.82-33.76-.96-14.4,1.11-11.52,.62-10.58,12.4,.59,7.45,1.92,14.9,.21,22.47-3.03-13.61,2.11-29.35-11.31-40.62,1.33,17.26,.45,34.22-.14,51.21-2.2-1.42-1.65-3.41-1.62-5.15,.18-11.41,.6-22.83,.68-34.24,.04-5.64-.41-11.29-4.2-16-.46-.57-.99-1.18-.2-1.89,3.98-3.56-.54-4.25-2.23-7.02-1.62,16.04-.83,31.21-2.56,46.19,0-7.46-.04-14.92,.01-22.39,.06-7.55,.98-15.11-.34-22.64-.61-3.45-1.94-6.53-4.51-8.97-.62-.59-1.25-1.48-2.23-1.12-1.07,.39-.7,1.51-.74,2.32-.57,11.7-1.1,23.4-1.68,35.09-.09,1.84,.49,3.85-1.86,6.45,.24-5.13,.38-9.24,.64-13.34,.58-9.46,1.98-18.91,.41-28.39-.67-4.08-1.36-8.19-6.02-11.22,1.53,18.27-.33,35.77-1.16,54.44-2.31-1.95-1.9-3.11-1.7-4.17,2.8-15.01,2.46-30.1,.75-45.16-.99-8.71-5.58-13.78-13-15.18,2.64,13.85,5.25,27.58,3.33,41.61-.82-15.06,1.22-30.7-10.35-43.37,.68,13.96,2.93,27.87,.92,41.88-.39-7.72-.75-15.45-1.17-23.17-.32-5.93-1.19-11.79-2.7-17.54-.44-1.69-.64-3.47-3.16-3.56-2.34-.08-3.44,.94-4.3,2.95-5.86,13.81-9.73,28.27-14.07,42.58-6.43,21.17-5.3,42.81-4.92,64.44,.47,26.84,1.11,53.67,1.49,80.51,.19,12.92,.16,26,2.71,38.54,4.48,21.97,3.58,44.59,9.08,66.38,1.21,4.81,2.99,9.56,2.95,14.66-5.59-13.79-6.21-28.93-11.59-42.8-.97,9.8-.31,19.42,2.44,28.82,1.49,5.12,3.31,10.14,4.88,15.23,.72,2.33,.82,4.95-2.52,4.74-8.88-.57-16.64,3.98-25.14,5.12-4.55,.61-9.05,1.62-13.69,.98-.44-.06-1.06-.37-1.29-.18-4.72,3.85-5.3-1.26-6.87-3.38-2.17-2.93-2.46-6.6-2.77-10.16-1.29-14.59-2.61-29.19-3.89-43.78-.22-2.51-.57-5.03-.5-7.54,.63-22.1-1.53-44.16-1.07-66.26,.07-3.1-.04-6.28-.7-9.29-2.86-13.13,.28-26.18,.68-39.26v8.34c.26,.02,.53,.05,.79,.07,.5-3.14,.96-6.29,1.51-9.42,.82-4.68,1.42-9.38,1.39-14.14-.03-4.32,4.31-7.3,3.54-11.86-1.97-11.66,2.93-22.61,3.62-34.05,.68-11.24,4.15-21.86,9.66-32.05,4.98-9.23,8.79-19.07,15.3-27.47,4.83-6.24,10.12-12.01,16.46-16.77,1.32-.99,3.93-1.96,2.44-3.84-1.4-1.77-3.2,.32-4.41,1.45-10.68,9.86-21.34,19.73-30.9,30.71-1.92,2.21-3.96,4.32-6.23,6.22,9.48-13.76,22.39-24.6,33.99-38.06-6.82-.09-11.07,1.28-14.89,5.46-8.92,9.76-17.07,20.12-25.13,30.56-1.34,1.74-2.84,3.36-4.61,4.77,7.91-13.57,19.4-24.5,28.95-37.93-7.58,.09-12.29,2.57-15.51,8.42-7.64,13.87-15.6,27.56-23.67,41.21,4.65-16.63,16.68-29.69,23.29-46.14-6.06,.91-8.67,4.92-11.03,8.92-7.33,12.4-13.18,25.51-17.87,39.12-.95,2.76-1.98,5.5-3.28,8.14,1.01-6.09,3.33-11.76,5.59-17.43,2.68-6.74,5.7-13.34,8.47-20.05,.37-.9,1.85-2.16,.19-3-1.13-.57-2.32,.37-3.03,1.35-.68,.95-1.25,2.02-1.65,3.12-4.02,10.97-8.83,21.66-11.77,33.02-.64,2.48-1.42,5.06-3.44,7.07-.78-1.27-.58-2.59-.12-3.51,5.93-11.92,8.47-25.11,14.04-37.16,.52-1.12,1.57-2.75,.46-3.61-1.38-1.07-3.55-.47-4.32,.94-1.21,2.22-5.84,2.94-3.29,6.91-3.54,1.22-3.68,4.31-4.09,7.31-.8,6.01-1.9,11.99-2.16,18.08-.55-3.26-.37-6.51,.07-9.76,.24-1.76,.52-3.53,.54-5.29,.06-6.46-2.01-8.16-8.24-7.08-4.11,.71-8.03,2.01-11.92,3.49-3.73,1.41-7.46,2.82-11.37,3.87,2.16-2.07,4.77-3.43,7.57-4.31,5.23-1.63,10.52-3.04,15.79-4.55,1.42-.41,2.96-.64,4.22-1.34,2.63-1.46,5.87-3.7,4.98-6.57-.83-2.69-4.38-.95-6.71-.48-10,1.99-19.62,5.2-28.96,9.3,7.66-5.27,16.38-7.8,25.31-9.73,2.02-.44,4.1-.64,6.13-1.08,2.35-.5,4.58-1.36,6.05-3.42,.74-1.05,2.05-2.22,1.25-3.52-.7-1.13-2.23-.4-3.31-.15-9.23,2.13-18.44,4.36-27.66,6.54-1.12,.26-2.26,.42-3.47,.28,9.04-3.05,18.19-5.7,27.52-7.61,5.08-1.04,10.21-1.88,14.95-4.11,2.49-1.17,4.9-2.49,6.98-5.75-17.8-.51-33.84,3.6-49.76,8.65,18.48-9.66,39.69-8.16,59.12-14.19-9.04-1.38-17.71,1.03-26.46,2.25-8.78,1.22-17.5,2.87-26.34,3.74,22.18-4.85,44.48-9.01,67.73-10.08-4.62-4.41-15.53-4.2-58.34,.26,3.12-2.01,6.76-2.55,10.35-2.99,16.98-2.07,33.98-2.58,51.02-.67,2.78,.31,5.6,.66,8.38-1.18-17.47-6.7-35.43-9.18-54.08-5.62,2.83-1.98,6.78-2.99,13.55-3.12,14.23-.27,27.92,2.95,41.51,6.71,2.99,.83,5.92,2,9.07,2.04,.95,.01,2.26,.62,2.75-.64,.48-1.22-.15-2.4-1.24-3.06-2.15-1.3-4.29-2.71-6.61-3.62-4.53-1.77-9.19-3.24-14.17-4.95,5.6,.48,10.61,2.03,16.01,2.99-3.81-4.38-7.59-8.79-11.45-13.13-1.14-1.28-2.78-1.04-4.18-.6-4.97,1.54-9.55,3.83-13.67,7.23,1.53,1.47,3.4,1.31,5.63,2.16-3.96,.11-7.29-.89-10.59,.02-1.01,.28-1.9-.08-2.12-1.04-.35-1.55,1.07-.89,1.73-1.15,6.38-2.48,11.97-6.44,18.01-9.57,1.27-.66,1.7-1.54,.84-2.86-1.1-1.69-1.73-3.77-4.53-3.45-4.49,.51-8.68,1.8-12.7,3.81-4.08,2.05-8.19,4.06-12.57,5.7,1.13-2.65,3.41-4.08,5.85-5.12,5.04-2.14,10.2-4,15.25-6.13,1.31-.55,3.9-.71,3.09-2.85-.78-2.07-1.24-5.05-4.87-4.76-5.22,.42-10.25,1.51-15.09,3.47-7.86,3.19-14.8,7.87-21.5,13.05,2.25-3.89,5.65-6.53,9.39-8.77,7.14-4.29,14.71-7.63,22.56-10.39,1.74-.61,5.09-.6,3.62-4.14-1.17-2.81-1.97-5.84-6.55-4.44-7.99,2.43-15.63,5.51-22.81,9.76-3.13,1.85-6.18,3.91-9.84,4.69,9.14-7.06,19.2-12.4,29.94-16.56,1.5-.58,4.38-.06,3.92-3.14-.44-2.96-2.78-3.09-5.08-3.09-5.18,0-9.84,1.94-14.46,3.98-6.37,2.8-12.1,6.71-18.31,10.06,1.49-1.25,2.89-2.63,4.48-3.72,8.23-5.64,17-10.21,26.59-13.14,1.29-.39,3.91-.06,2.79-2.75-.92-2.21-.74-5.81-4.74-5.17-5.45,.87-10.62,2.72-15.61,5.02-5.87,2.71-11.64,5.61-17.66,8.11,1.81-2.52,4.44-3.94,7.14-5.16,7.57-3.4,15.16-6.74,22.8-9.96,4.48-1.88,4.54-1.75,2.4-6-5.23,1.18-10.7,.13-15.6,2.71-5.04,2.65-10.44,4.61-15.8,6.64,6.87-5.4,14.99-8.38,22.91-11.74,.95-.4,2.02-.57,2.92-1.07,1.78-.99,1.43-2.89,1.33-4.39-.14-2.16-1.98-1.18-3.14-1.15-4.16,.13-8.03,1.73-13.01,3,2.73-2.23,5.13-2.83,7.37-3.44,6.44-1.73,11.06-4.97,11.34-12.39,1.47,.83,.66,1.87,.79,2.71,.13,.87-.02,1.79,.1,2.66,.19,1.29,.27,2.91,1.94,3.07,1.78,.17,2.09-1.53,2.32-2.75,1.33-6.83,2.5-13.69,3.8-20.53,1.38-7.24,2.84-14.47,4.7-21.62-.36,8.99-2.5,17.67-4.38,26.38-1.66,7.69-2.84,15.44-3.44,23.28-.37,4.9,.95,8.63,4.29,12.63,1.53-.77,1.06-2.55,2.05-4.05,.41,4.25-.73,8.43,2.07,12.11,2.24-16.53,6.63-32.5,10.82-48.52-.61,8.54-3.29,16.62-5.22,24.86-2.45,10.45-4.13,20.96-2.07,31.69,.68,3.54,1.32,7.24,5.57,9.81,.47-19.96,7.57-38.37,7.9-57.81,1.81,6.35,.55,12.54-.68,18.67-2.46,12.2-5.41,24.32-5.15,36.89,.05,2.41-.18,4.92,1.41,7.17,2.73-15.3,4.19-30.72,6.32-46.08,1.24,17.63-6.02,34.95-1.64,52.66,1.99-3.77,1.91-7.91,2.87-12.48,.35,6.35-.89,12.13,.51,17.81,.1,.41,.41,.77,1.1,1.03,3.38-14.11,2.35-28.59,5.53-42.53,.25,7.5-1.5,14.82-2.1,22.24-.67,8.29-.46,16.59-.21,24.88,.08,2.57,.98,5.14,4.44,6.78,0-3.93-.1-7.27,.02-10.6,.25-7.11,.99-14.23,.76-21.32-.11-3.54,4.82-4.5,3.41-6.89,.76,11.05,.36,23.5,1.88,35.84,.49,3.96,1.25,7.9,2.01,11.82,.31,1.59,.87,3.18,2.08,4.36,.92,.89,1.87,2.4,3.29,1.66,1.19-.62,.49-2.17,.35-3.27-1.9-14.42-3.58-28.85-1.39-43.4,.46-3.03,.61-6.14,2.35-8.95-3.11,19.89-3,39.54,2.91,60.1,3.01-4.11,3.63-7.58,3.55-11.07-.46-18.45,2.1-36.68,3.85-54.97,.2-2.1,.3-4.35,2.59-7.22-1.16,21.15-7.69,40.8-3.33,61.48,3.42-2.85,4.24-6.35,4.34-10.07,.51-19.61,5.32-38.38,11.15-56.94,.35-1.12,.44-2.35,1.97-3.69-4.4,19.18-11.02,37.42-9.55,56.98,5.03-23.42,10.55-46.62,20.42-68.59-5.97,19.95-14.59,39.23-15.99,61.33,7.27-7.97,8.58-17.68,12.66-26.11-.53,4.74-2.92,9.11-2.79,14.29,4.85-1.83,6.98-5.59,8.69-9.77,6.52-15.93,14.01-31.38,22.96-46.1,.67-1.1,1.39-2.16,2.36-3.11-7.55,15.09-16.13,29.71-21.68,46.71,4.58-1.03,6.56-3.54,8.07-6.63,2.61-5.32,5.17-10.66,7.88-15.92,.63-1.23,.93-2.87,2.59-3.36l-.09-.08ZM83.14,383.51l-1.1-.05c-.64-5.39-.85-10.88-.02-16.21,.57-3.65-1.12-4.76-3.78-5.72-2.59-.94-4.82-3.12-7.72-2.85-1.94,.18-9.86,10.89-9.87,13-.05,8.73-.02,17.47,0,26.2,0,1.34-.02,2.7,1.55,3.35,8.38,3.44,14.68,9.89,21.72,15.24,2.25,1.71,3.45,1.38,4.88-.86,1.67-2.63,3.87-4.89,6.38-6.74,2.68-1.98,3.53-4.42,2.99-7.73-1.48-9.2-2.84-18.43-3.06-27.77-.04-1.58-.33-2.79-1.96-3.58-2.39-1.16-4.68-2.53-6.93-3.94-2.21-1.37-3.14-.99-3.1,1.73,.08,5.31,.02,10.62,.02,15.93Zm-22.11-41.07c-.05,1.04,.05,2.1-.16,3.1-.97,4.46,1.73,6.07,5.22,7.73,3.39,1.62,5.3,0,7.34-2.06,5.51-5.58,10.85-11.35,16.6-16.68,2.22-2.06,2.67-4,2.75-6.87,.17-6.51-.95-11.94-7.79-14.6-1.05-.41-1.87-1.43-2.79-2.18-7.62-6.26-7.57-6.19-15.42-.41-2.8,2.07-4.79,4.35-4.65,8.02,.3,8.01-.65,15.97-1.08,23.94Zm31.29-70.78h.18c0-2.96-.03-5.92,0-8.88,.09-8.16-6.07-11.9-13.19-7.92-2.96,1.66-5.85,3.46-8.68,5.35-2.69,1.8-4.49,4.35-4.87,7.62-.75,6.31-1.38,12.64-2,18.96-.14,1.42-.39,2.87,.95,4.1,2.6,2.41,5.12,4.92,7.55,7.5,1.6,1.7,2.94,1.76,4.97,.52,14.51-8.85,14.84-9.34,15.08-26.37,0-.3,0-.59,0-.89Zm6.32,173.01c1.82,2.69,1.76,5.36,1.61,7.92-.25,4.28,2.63,2.75,4.76,2.86,3.04,.15,2.95-1.64,2.45-3.73-1.42-6.04-2.87-12.07-4.28-18.12-.31-1.35-.82-2.52-2.07-3.25-3.71-2.15-7.39-4.34-11.12-6.45-1.46-.83-2.94-1.31-4.43,.2-5.39,5.48-11.55,10.2-16.38,16.22-4.55,5.67-3.24,12.29-2.54,18.74,.05,.44,.64,.83,1.57,1.96l-.65-4.99c.85,1,.73,2.56,2.51,3.21,.6-5.45-.96-10.98,1.33-16.07,1.16,5.45-.02,10.99,1.33,16.37,.44,1.74,1.01,2.99,3.28,2.58,2.01-.36,2.67-1.23,2.58-3.27-.25-5.77-.6-11.52-1.76-17.2-.22-1.05-.94-2.69,.71-2.98,1.78-.31,1.36,1.57,1.55,2.57,1.1,5.56,.73,11.21,.84,16.83,.05,2.78,.88,3.77,3.74,2.8,4.05-1.39,8.15-2.69,12.31-3.71,2.45-.6,3.02-1.79,2.66-4.1-.4-2.64-1.48-5.35,.01-8.4Zm-29.4-206.62c-.39,1.69,.68,2.45,1.89,3.17,3.44,2.02,6.85,4.09,10.3,6.08,.73,.42,1.65,.88,2.43,.8,3.63-.35,10.81-7.71,11.29-11.35,1.36-10.25,2.64-20.51,4.2-30.73,.57-3.77-.48-4.46-3.83-3.12-7.04,2.8-13.04,7.51-19.87,10.69-1.09,.51-1.72,1.64-2.05,2.8-2.05,7.11-3.13,14.42-4.36,21.66Zm-2.3,175.03c-1.34,5.43-.14,9.93-.28,14.4-.09,2.76,1.35,5.82-1.79,8.11-.93,.68-.44,2.61,.4,3.67,.51,.63,1.45,.15,1.89-.48,4.18-6.06,10.46-10.05,15.14-15.61,.71-.84,1.94-1.79,.79-3.06-3.73-4.1-7.18-8.58-12.99-10.73-.48,6.3,.38,12.17,.62,18.71-2-4.96-1.2-9.91-3.78-15Zm22.73-69.15c2.29,2.92,1.62,5.57,1.27,8.19-.49,3.65-1.53,7.25-1.32,10.98,.09,1.68,1.04,3,2.64,3.07,2.08,.09,1.52-1.92,1.51-3.01-.12-7.98-.39-15.96-.64-23.94-.02-.69,.21-1.6-.63-1.96-1.05-.46-1.61,.5-2.19,1.06-3.52,3.36-7.16,6.63-10.46,10.21-7.57,8.24-7.5,8.31,3.01,12.19,.12,.04,.29-.05,.51-.09,1.17-3.36-.96-7.25,1.47-10.79,2.32,3.16,1,6.14,.5,9.11-.26,1.53-.96,3.64,1.44,3.9,2.37,.26,1.56-2.05,1.72-3.24,.64-4.94-.26-10,1.18-15.67Zm16.5-180.01c-6.31,8.98-10.33,17.86-12.14,27.65-.66,3.59,2.89,4.91,5.19,5.62,1.92,.59,1.59-2.49,2.06-3.98,.75-2.36,1.2-4.82,2.01-8.2-1.24,1.53-1.85,2.27-2.3,2.82-.92-8.23,7.54-14.09,5.19-23.92Zm-13.91,139.01h-.12c0-2.52,.01-5.04,0-7.56-.01-1.63-.43-2.78-2.33-1.56-3.36,2.17-6.77,4.27-10.02,6.6-1.95,1.39-1.89,2.88,.03,4.67,2.97,2.77,6.41,4.76,9.82,6.83,1.75,1.06,2.71,.93,2.63-1.42-.08-2.52-.02-5.04-.02-7.56ZM175.96,76.42c4.85-.4,8.83-1.3,12.69-.92,7.05,.7,9.63-3.85,12.33-8.91-9.32-1.54-18.25,1.79-25.02,9.83ZM98.72,410.78c-2.09,.53-2.84,1.74-3.55,2.78-1.5,2.21-5.42,3.69-4.32,6.51,1.23,3.15,5.05,4.24,8.3,5.31,1.82,.6,2.93,.53,2.37-1.89-.96-4.14-1.84-8.3-2.81-12.71Zm1.01-241.61c-3.8,4.59-7.62,8.89-10.25,14.1-1.15,2.27-1.08,4.25,.66,6.1,1.55,1.65,2.64,2.3,3.35-.81,1.26-5.49,3.56-10.64,5.73-15.83,.4-.95,1.69-2.02,.52-3.57Zm-36.77,132.39c0,1.9,0,3.67,0,5.44,0,.73,.04,1.81,.93,1.66,2.93-.51,4.86-2.62,6.76-4.7,1.67-1.83,.11-3.02-.95-4.1-1.88-1.91-2.98-5.97-5.85-5.11-1.96,.59-.41,4.53-.88,6.81Zm3.92-41.35c4.49-3.34,7.5-6.48,11.63-7.99,.84-.31,2.45-.51,1.93-1.89-.66-1.76-2.56-2.37-4.15-3.12-1.05-.5-1.82,.35-1.92,1.22-.37,3.22-3.47,4.2-5.16,7.52v-11.25c-2.59,4.65-1.65,9.6-2.34,15.5Zm18.81-69.6c1.62,1.84,2.02,3.64,1.36,5.91-.64,2.22-2.67,5.65-.79,6.66,2.23,1.2,4.9-1.87,7.5-2.8,1-.36,1.39-1.06,.74-2.04-2.15-3.27-4.43-6.41-8.82-7.73Zm-23.16,163.95c-2.85,1.11-1.61,3.72-1.95,5.55-.21,1.1-1.31,3.76,.86,3.45,2.86-.4,4.83-3.29,5.37-5.9,.46-2.25-2.8-1.79-4.28-3.1Zm22.36-157.62c-1.91,.52-2.04,1.99-2.66,3.09-1.51,2.69-.67,7.01-5.35,7.59-.58,.07-.95,1.49,.26,2.01,1.5,.64,7.01-2.6,6.56-4.07-.92-3.01,.78-5.43,1.19-8.62Zm-28.53,108.85c-.29,4.43-1.25,8.87,.68,13.11,.24-4.42,3.84-8.96-.68-13.11Zm4.22,101.35c.59,.91-.89,3.36,1.7,2.9,1.51-.27,3.74-.66,3.66-3-.07-2.05-1.86-2.36-3.47-2.58-2.11-.29-1.86,1.26-1.89,2.68ZM197.65,63.16c4.28,.67,7.36,.85,8.73-4.15-3.25,.8-5.95,1.45-8.73,4.15ZM58.36,160.42c-3.13,.69-4.53,2.29-5.16,4.68-.16,.6,.1,1.22,.88,1.15,2.53-.23,3.13-2.29,3.87-4.2,.1-.27,.14-.56,.41-1.63Z"/><path d="M180.83,63.61c-.12-8.85,27.16-46.59,43.12-59.72-8.66,8.88-16.99,17.99-24.17,28.17-7.1,10.07-12.78,20.95-18.96,31.55Z"/><path d="M173.36,54.01c3.58-8.63,9.07-16.11,14.45-23.63,1.79-2.51,3.96-4.75,5.95-7.12,.88,.62,.31,1.06,.01,1.44-6.79,8.94-13.2,18.15-18.98,27.79-.35,.58-1.01,.97-1.52,1.44l.09,.08Z"/><path d="M56.99,267.55c-.16-9.33,1.37-18.46,3.34-27.53,.27-1.25,.98-2.46,2.32-2.15,1.57,.36,.74,1.7,.35,2.54-3.96,8.62-4.49,17.98-6.02,27.14Z"/><path d="M167.87,27.67c-4.78,10.38-9.55,20.76-14.33,31.14,3.53-10.97,8.13-21.45,13.2-31.72,.38,.19,.75,.39,1.13,.58Z"/><path d="M89.5,52.55c1.15,10.09-1.07,19.95-2.25,29.88,1.12-9.94,.09-20,2.25-29.88Z"/><path d="M199.88,145.95c-9.25-.19-18.49,.07-27.74,.19,9.25-.33,18.49-2.47,27.74-.19Z"/><path d="M67.19,40.1c1.81-8.6,3.63-17.19,5.44-25.79,0,8.94-2.5,17.38-5.44,25.79Z"/><path d="M61.8,4.42c-1.09,7.75-3.93,14.99-6.47,22.33,1.42-7.65,3.68-15.07,6.47-22.33Z"/><path d="M24.97,56.24c-4.13,2.38-8.13,4.94-12.16,8.64,2.35-4.58,6.39-7.38,12.16-8.64Z"/><path d="M200.74,16.27c1.73-2.95,3.01-6.42,6.47-7.4l.85,.93c-2.44,2.15-4.88,4.31-7.32,6.46Z"/><path d="M215.22,51.39c1.48-4.2,5.27-6.42,8.3-9.29-2.21,3.58-4.86,6.77-8.38,9.21l.09,.09Z"/><path d="M90.71,385.74c-1.61-3.59-1.63-7.62-3.57-11.06-.36-.63-.37-1.87,.87-2.07,1.2-.2,2.15,.53,2.27,1.61,.43,3.8,1.53,7.6,.44,11.52Z"/><path d="M90.22,394.03c1.52,2.58,2.51,5.17,.49,8.37-1.49-3.01-.94-5.71-.49-8.37Z"/><path d="M77.15,321.82c-1.3-2.09-.77-3.85-.72-5.5,.04-1.25-.86-3.49,1.41-3.33,1.64,.11,1.01,2.16,.94,3.36-.09,1.73-.41,3.47-1.63,5.48Z"/><path d="M81.97,268.58c-.56-3.33-.97-5.47-1.26-7.62-.09-.68-.09-1.61,.92-1.69,.87-.06,1.3,.67,1.41,1.41,.35,2.33-.17,4.54-1.06,7.9Z"/><path d="M85.91,435.63c1.34,5.95,1.98,11.97,1.56,18.1-1.58-5.92-2.28-11.93-1.56-18.1Z"/><path d="M89.09,230.54c-.37-5.9,.79-11.61,2.12-17.31,.61,5.92-.64,11.63-2.12,17.31Z"/><path d="M88.11,308.82c-.24-3.06-.67-6.12,1.17-9.15,1.53,3.52,1.19,6.48-1.17,9.15Z"/></svg>