<?xml version="1.0" encoding="UTF-8"?><svg id="stegosaurus" xmlns="http://www.w3.org/2000/svg" viewBox="0 0 390.21 289.46"><path d="M86.47,264.54c.07-1,.18-1.99,.2-2.99,.22-13.28-1.76-11.14-10.71-13.56-23.18-6.27-45.88-14.21-63.74-31.48-5.19-5.02-9.16-10.99-11.58-17.86-.6-1.72-1.12-3.82,.09-5.29,1.33-1.62,2.56,.74,3.91,.78,11.83,.32,22.29,6.53,33.9,7.82,5.82,.65,11.61,1.29,17.36-.1,16.93-4.09,26.78-17.75,26.02-35.91q-.38-8.98-8.62-5.95c-2.03,.74-4.07,1.49-6.15,2.06-7.87,2.15-10.23,1.19-15.07-5.44-4.21-5.78-8.98-11.17-12.37-17.52-2.88-5.41-2.18-6.92,3.67-8.71,6.52-2,13.11-3.8,19.53-6.08,4.78-1.69,8.76-1.32,12.17,2.63,.76,.88,1.67,1.63,2.57,2.37,4.01,3.33,4.81,3.09,5.94-1.87,.55-2.43,1.03-4.88,1.47-7.34,1.25-7.1,3.01-14.02,7.55-19.85,2.08-2.67,1.28-4.16-1.71-4.91-3.39-.84-6.79-1.61-10.2-2.36-5.32-1.16-8.48-4-8.78-9.84-.36-7.14-1.1-14.27-1.8-21.39-.31-3.16,.67-4.6,4.06-4.36,8.47,.59,16.94,1.06,25.42,1.44,2.62,.12,3.79,1.56,4.64,3.75,1.74,4.49,3.6,8.94,5.4,13.41,.99,2.46,2.44,2.75,4.58,1.2,4.99-3.6,9.94-7.28,15.55-9.92,2.68-1.26,1.53-3.22,.16-4.37-6.4-5.4-9.34-13.32-14.58-19.55-1.65-1.96-2.04-4.15-1.16-6.53,3.87-10.46,7.96-20.81,13.42-30.58,2.1-3.76,4.34-4.58,7.84-1.82,7.45,5.86,15.03,11.57,22.48,17.44,2.6,2.04,2.83,5.19,3.03,8.18,.35,5.32,.55,10.64,.74,15.97,.07,2,.1,3.59,2.99,3.12,8.2-1.35,16.43-2.55,24.66-3.67,3.4-.46,4.18-2.09,2.9-5.08-.13-.3-.07-.7-.24-.96-5.74-8.62-1.55-14.56,4.88-20.55,5.46-5.08,10.09-11.05,15.11-16.61,2.8-3.11,5.03-3.24,6.81,1.09,3.99,9.68,8.14,19.3,12.22,28.95,1.42,3.36-.72,5.66-2.35,8.16-1.99,3.05-6.81,5.56-6.16,8.55,.72,3.26,6.3,2.18,9.45,3.95,3.76,2.12,7.81,3.72,11.61,5.79,2.57,1.4,3.82,.46,4.17-1.97,.45-3.12,.64-6.28,.79-9.43,.18-3.9,1.99-6.5,5.54-8.14,9.81-4.53,19.54-9.24,29.36-13.76,5.22-2.4,5.66-2.1,5.75,3.35,.22,12.29-3,24.07-5.79,35.86-1.29,5.43-6.65,6.51-11.28,7.94-5.4,1.66-5.27,1.53-1.63,5.87,4.06,4.84,7.85,9.91,11.76,14.88,2.23,2.84,3.53,2.42,5.04-.88,6.21-13.53,6.3-13.47,21.02-12.02,4.81,.48,9.63,.84,14.34-.81,.78-.27,1.63-.33,2.45-.47,3.17-.53,6.91-1.14,9.01,1.29,2.22,2.56-.37,5.67-1.61,8.24-3.98,8.24-10.23,15.19-13.62,23.79-.83,2.11-2.92,2.58-4.93,2.9-4.11,.66-8.2,1.54-12.34,1.82-3.82,.25-4.5,2.06-3.5,5.19,1.52,4.75,2.77,9.62,4.74,14.18,5.68,13.13,11.47,26.22,16,39.79,1.57,4.7,4.58,6.31,8.92,5.92,5.62-.51,11.2-1.47,16.8-2.19,7.46-.97,14.95-1.03,22.43-.55,5.49,.35,9.48,2.56,12.22,7.89,5.04,9.81,10.11,19.42,10.87,30.78,.57,8.47-2.23,14.65-9.43,19.44-14.85,9.88-31.82,13.16-48.78,16.62-3.89,.79-8.95,.24-11.41,2.53-2.59,2.42-.71,7.58-.8,11.53-.32,14.67-3.52,18.02-18.32,18.81-8.71,.46-10.44-.72-13.33-9.07-1.55-4.48-1.64-9.14-1.86-13.8-.24-5.21-2.38-7.13-7.1-6.65-4.43,.46-5.59,2.45-4.68,7.89,.47,2.79,.99,5.58,1.23,8.39,.72,8.53-4.24,14.24-13.24,15.41-7.55,.98-12.4-2.87-14.24-11.34-1.17-5.39-1.71-10.88-1.55-16.37,.08-2.94-.85-3.75-3.67-3.58-4.98,.31-10,.12-14.98,.47-19.03,1.33-37.92-.03-56.77-2.62-1.98-.27-3.99-.27-5.96-.54-3.05-.42-4.24,.66-3.9,3.84,.46,4.3,.57,8.63-.2,12.94-.7,3.98-2.85,6.75-6.64,8.01-6.41,2.14-13.09,2.52-19.74,1.98-4.72-.38-6.21-4.18-6.46-8.22-.35-5.48-.47-10.99-.27-16.47,.12-3.25-1.17-3.73-4.03-3.86-3.29-.15-2.95,1.68-2.95,3.74,0,5.99,.31,11.97-.84,17.93-.76,3.95-3.04,6.2-6.78,7.06-6.8,1.55-13.59,1-20.27-.67-4.59-1.15-6.99-4.26-6.99-9.08,0-2.66,0-5.32,0-7.98h.3ZM126.98,75.59c11.85,3.46,23.2,4.81,33.26,10.13-2.2,.03-4.25-.5-6.29-1.04-6.9-1.85-13.69-4.19-20.87-4.88-9.58-.92-17.36,3.38-20.03,11.4,11.7-.46,23.1-4.03,34.77-2.52,11.63,1.5,21.86,6.68,31.71,12.72-4.35-1.07-8.66-2.33-12.61-4.32-15.34-7.76-31.04-7.64-47.07-2.72-12.8,3.93-22.38,10.94-24.43,25.25-.65,4.52-2.59,9.02,.21,13.58,.47,.75-.11,2.26-.41,3.36-2.5,9.2-3.39,18.64-4.2,28.1-2.3,26.97-17.54,41.9-44.51,43.94-9.63,.73-19.24,1.1-29.26,.69,5.08,3.42,6.71,11.71,15.43,9.95,.69-.14,1.73,.85,2.43,1.5,5.2,4.83,11.36,8.1,17.79,10.9,16.76,7.27,34.48,11.1,52.3,14.52,2.81,.54,7.38,2.26,8-2.08,.58-4.1-4.19-3.21-6.81-3.7-16.2-3.01-32.35-6.19-47.84-12.01-2.96-1.11-5.89-2.34-8.25-4.55-1.05-.98-1.71-2.32-.78-3.54,1.02-1.34,2.42-.86,3.45,.2,7.98,8.23,18.57,10.75,29.15,13.05,13.97,3.03,27.95,6.13,42.25,7.33,1.49,.12,4.58,.3,4.2,1.22-1.62,3.96,1.59,2.21,2.53,2.25,10.64,.41,20.7-2.71,30.88-5.21,4.46-1.1,8.89-2.64,13.59-2.37-8.35,2.52-17.04,3.86-26.19,8.4,25.64,5.97,49.63-1.35,73.78-.9-14.88,1.56-29.76,3.13-44.64,4.69,8.75,1.81,17.47,2.21,26.13,3.11,29.11,3.02,58.2,.52,87.28-.33,14.11-.41,28.18-2.33,42.28-3.37,15.68-1.16,30.64-4.31,43.4-14.33,2.43-1.91,4.67-4.59,3.39-7.06-1.17-2.25-4.25,0-6.28,.75-12.79,4.71-25.96,7.31-39.58,6.73-10.11-.43-16.58-9.13-14.82-19.11,.2-1.15,.31-2.58,1.87-2.39,1.28,.15,2.29,.74,2.41,2.57,.81,12.56,5.39,16.46,17.96,15.5,10.34-.79,20.44-2.79,30.15-6.49,13.5-5.14,13.93-6.18,9.67-20.5-5.5-18.47-11.71-22.32-30.72-19.18-6.56,1.08-13.31,1.39-19.73,2.69-9.39,1.9-14.48-.82-18.52-9.47-2.91-6.24-7.08-11.93-9.39-18.61-5.88-16.97-11.1-34.22-19.09-50.36-8.55-17.28-21.17-31.17-38.13-40.41-9.6-5.23-19.97-9.1-30.11-13.29-8.88-3.67-18.17-5.41-27.83-4.44-20.69,2.07-38.81,11.18-56.72,20.83-1.43,.77-2.64,1.95-5.17,3.86Zm29.99-28.69c-.35-4.53-.77-8.66-.98-12.81-.21-4.18-1.98-7.13-5.76-9.15-4.7-2.52-8.74-6.02-12.81-9.45-5.11-4.31-6.01-4.18-8.68,2.13-3.03,7.17-4.34,15-8.33,21.81-1.13,1.93-.06,3.42,1.2,4.9,4.53,5.31,9.14,10.56,13.43,16.05,2.04,2.61,3.6,2.21,5.61,.28,3.53-3.39,7.77-5.7,12.32-7.36,3.37-1.23,4.85-3.24,4.02-6.4Zm98.14,8.64c0,2.32,0,4.65,0,6.97-.03,5.43,4.1,9.05,9.31,7.83,3.54-.82,7.01-2.03,10.42-3.29,2.62-.96,4.55-2.85,5.07-5.7,1.58-8.65,3.03-17.32,4.6-25.97,.63-3.46-1.02-3.2-3.32-2.25-4.91,2.03-9.72,4.37-14.77,5.93-8.31,2.57-13.49,6.87-11.31,16.47Zm-28.99-22.88c.08-2.23-.67-4.27-1.55-6.24-1.91-4.24-4.27-8.31-5.83-12.67-1.75-4.9-4.02-4.18-7.2-1.56-6.2,5.11-10.79,11.75-16.56,17.27-.79,.76-.92,1.67-.92,2.72-.03,8.38,3.55,12.53,11.63,13.49,.98,.12,1.95,.37,2.92,.62,7.18,1.84,17.47-6.15,17.52-13.61Zm92.62,51.42c-3.38,.35-7.32,1.05-11.28,1.12-8.28,.15-13.45,4.8-17.46,11.36-3.14,5.14,.32,13.6,6.17,15.08,9.3,2.36,17.43-.77,22.7-8.81,2-3.05,4.05-6.08,5.79-9.27,1.53-2.82,5.29-5.84,3.65-8.58-1.35-2.25-5.86-.57-9.56-.89Zm-243.68-10.53h.07c0,1.16-.03,2.32,0,3.48,.22,7.57,1.83,9.62,9.04,11.51,4,1.05,8,2.12,12.01,3.16,1.06,.27,1.99,.88,3.24,0,6.98-4.87,8.62-9.95,5.58-18.01-.23-.62-.56-1.22-.7-1.86-.99-4.48-4.02-6.09-8.33-6.25-3.63-.13-7.26,.14-10.88-.77-9.97-2.49-10.18-2.26-10.05,8.23,0,.17,0,.33,0,.5Zm-11.09,72.78c-4.63-2.02-6.83-4.97-9.32-7.51-1.72-1.76-3.26-3.43-5.96-1.86-3.22,1.87-.99,4.14-.26,6.04,1.55,4.05,4.02,7.61,6.56,11.14,2.59,3.6,5.65,4.27,9.5,2.5,4.84-2.23,9.67-4.45,15.14-4.64,1.14-.04,2.09-.4,2.57-1.85,2.72-8.27-1.31-16.37-9.56-19.08-1.18-.39-2.43-.8-3.21,.26-1.14,1.57,.8,1.76,1.47,2.47,1.03,1.08,2.25,1.97,3.24,3.08,.74,.84,1.72,1.98,.51,3.01-.88,.75-1.88-.15-2.65-.71-2.29-1.66-3.97-4.37-8.01-4.52,1.98,2.3,3.52,4.03,4.98,5.82,.52,.63,1.03,1.45,.29,2.23-.85,.9-1.51-.02-2.1-.44-2.34-1.65-4.09-3.88-5.81-6.13-1.21-1.6-2.96-2.89-4.61-1.43-1.73,1.54,.33,2.88,1.28,4.09,1.69,2.16,4.42,3.47,5.95,7.52Zm51.57,119.42q-.1-11.6-9.61-12.91c-12.47-1.72-13.5-.85-14.1,11.98-.16,3.36-.34,6.96,2.67,9.2,5.17,3.84,11.07,3.12,16.71,1.41,5.04-1.53,3.97-6.27,4.33-9.67Zm175.96,1.1c.24,3.64,.02,7.33,1.09,10.9,.78,2.59,2.18,4.38,5.05,4.85,11.72,1.95,15.71-1.38,15.48-13.04q-.25-12.74-13.06-12.25-8.99,.36-8.56,9.54Zm-145.83-12.49q-10.75-.21-10.16,8.2c.78,10.97,.88,11.06,11.75,9.89,1.65-.18,3.29-.32,4.94-.49,1.02-.1,2.07-.32,2.41-1.41,1.49-4.79,3.01-9.99,1.11-14.56-1.39-3.34-5.98-.96-9.07-1.6-.32-.07-.66,0-.99-.02Zm109.55,14.46l-.28,.02c.24,3.48,.34,6.98,.79,10.44,.28,2.12-.3,5.07,3.09,5.41,3.47,.35,6.73-.15,8.7-3.52,1.12-1.9,1.6-4.04,1.48-6.24-.21-3.99-.83-7.97-.76-11.95,.07-3.81-1.47-4.73-5.06-4.66-7.85,.15-7.85-.04-7.97,8.01-.01,.83,0,1.66,0,2.5Z"/><path d="M234.33,80.02c9.46,10.21,22.65,15.47,33.32,25.56-6.24,.64-10.11-4.68-16.1-3.84,5.7,6.63,13.86,9.93,18.49,17.24-4,1.26-7.16-1.47-11.07-.89,2.76,7.34,10.54,11.17,12.04,18.92-5.45-4.9-10.42-10.21-14.59-16.16-2.99-4.26-2.22-5.49,2.96-6.22,.61-.09,1.2-.29,2.82-.7-4.16-3.09-7.68-5.67-11.16-8.3-1.06-.8-2.11-1.65-3.01-2.62-1.21-1.3-3.27-2.47-2.67-4.46,.59-1.95,2.83-1.01,4.34-1.39,.6-.15,1.14-.58,2.3-1.2-5.34-3.52-10.34-6.7-15.21-10.08-2.86-1.98-5.62-4.16-8.22-6.47-1.41-1.25-3.15-2.66-.6-4.85,1.98-1.7-.38-1.9-1.32-2.32-5.78-2.57-11.63-4.91-17.97-5.82-1.67-.24-4.41-.14-3.83-2.62,.5-2.13,3.17-1.62,4.81-1.07,4.25,1.42,8.48,2.96,12.55,4.82,10.75,4.9,21.22,10.35,31.3,16.52,1.32,.81,3.68,1.65,2.68,3.38-.92,1.59-3.12,.33-4.53-.41-5.53-2.88-10.55-6.92-17.34-7.04Z"/><path d="M353.42,197.54c6.93-.04,11.07,3.14,11.12,8.56,.06,6.62-5,12.23-11.13,12.31-5.41,.07-9.96-4.57-10.02-10.23-.07-6.18,4.1-10.61,10.03-10.64Z"/><path d="M109,184.64c-2.09-5.5-1.88-10.94-2.19-16.27-1.07-18.37-.34-36.53,7-53.82,.89-2.09,1.63-5.64,4.11-4.63,2.79,1.15,.38,4.08-.61,5.81-6.7,11.65-8.62,24.24-8.08,37.44,.36,8.96,.43,17.93,.55,26.9,.02,1.36,.57,2.88-.76,4.58Z"/><path d="M294.39,166.66c4.17,2.53,21.22,27.04,23.54,33.06-6.9-.4-7.97-8.3-13.89-10.05,.23,4,4.41,6.54,3.58,10.67-4.28-2.51-8.71-11.53-9.03-18.19,1.97-.37,2.97,1.07,4.11,2.2,1.12,1.11,2.01,2.54,4.46,3.21-4.07-7.65-10.33-13.16-12.77-20.9Z"/><path d="M193.01,160.45c2.69-1.5,4.27,.75,6.24,1.1,1.41,.25,3,1.41,4.23,.17,1.42-1.43,.28-3.15-.33-4.61-2.42-5.77-6.89-7.77-12.91-5.75-1.11,.37-2.04,.3-2.68-.48-.67-.81-.56-1.87,.1-2.77,1.16-1.56,2.66-2.42,4.66-2.37,6.36,.19,14.24,7.77,14.87,14.09,.33,3.38-.78,5.02-4.32,4.81-3.73-.23-7.56-.11-9.85-4.2Z"/><path d="M116.41,230.74c-13.01-.61-25.71-2.8-37.96-7.23-1.73-.63-3.4-1.52-4-3.45-.16-.53,.04-1.35,.38-1.83,.45-.65,1.19-.4,1.73,.05,10.32,8.61,23.24,9.03,35.56,11.36,1.45,.27,2.86,.73,4.29,1.1Z"/><path d="M365.88,187.53c8.74,2.91,9.64,10.45,12.89,16.28-6.92-3.03-9.82-9.13-12.89-16.28Z"/><path d="M340.8,211.78c-2.72-.04-3.13-1.87-3.5-3.67-.17-.8,.06-2.22-.3-2.37-7.67-3.17,2.52-6.26,.06-9.46-.33-.42,.67-1.46,1.68-1.09,1.3,.48,2.67,1.34,2.17,2.84-1.51,4.57-.29,9.15-.11,13.75Z"/><path d="M307.91,238.81c-8.23-.8-16.26-2.39-24.14-4.72-1.28-.38-2.64-1.18-2.07-2.83,.49-1.43,1.96-1.2,2.99-.76,7.56,3.24,15.06,6.6,23.21,8.31Z"/><path d="M121.16,167.61c-1.65-7.38-.26-14.4,2.07-21.31,.27-.79,.73-1.61,1.76-1.1,.91,.45,.79,1.31,.51,2.15-2.25,6.59-2.9,13.49-4.34,20.26Z"/><path d="M150.88,72.93c5.53-.26,9.57,3.18,13.44,7.14-4.65-1.82-9.31-3.63-13.96-5.45l.53-1.69Z"/><path d="M212.2,220.1c3.51-.19,6.93-1.95,10.54-.5-3.39,2.35-6.95,1.76-10.54,.5Z"/><path d="M286.55,239.94c3.11,1.41,6.22,2.82,9.33,4.23-4.05,.78-7.39-.11-9.33-4.23Z"/><path d="M379.22,213.94c-3.78-1.99-5.25-4.25-7.06-8.06,4.01,1.83,5.94,3.75,7.06,8.06Z"/><path d="M101.56,268.6c-1.48-3.49-3.21-6.04-1.49-9.13,.11-.2,1.05-.26,1.18-.08,1.92,2.67,1.86,5.5,.31,9.21Z"/><path d="M304.39,268.94c-.61,2.81-.95,4.38-1.34,6.16-3.6-4.86-1.64-12.29,3.44-13.98,1.75-.58,2.5,.32,2.49,1.99-.01,2.99-.05,5.98-.11,8.97-.02,.83-.16,1.8-1.11,2-1.28,.27-1.64-.71-1.92-1.75-.21-.76-.61-1.46-1.44-3.38Z"/></svg>